<?xml version="1.0" encoding="UTF-8"?>
<svg id="_레이어_2" data-name="레이어 2" xmlns="http://www.w3.org/2000/svg" viewBox="0 0 375 526">
  <defs>
    <style>
      .cls-1 {
        fill: #fefefe;
      }

      .cls-1, .cls-2, .cls-3, .cls-4, .cls-5, .cls-6 {
        stroke-width: 0px;
      }

      .cls-2 {
        fill: #da7d7b;
      }

      .cls-3 {
        fill: #f7d38e;
      }

      .cls-4 {
        fill: #b3d4ad;
      }

      .cls-5 {
        fill: #96d0d7;
      }

      .cls-6 {
        fill: #9fb5c5;
      }
    </style>
  </defs>
  <g id="_레이어_1-2" data-name="레이어 1">
    <g>
      <path class="cls-1" d="M.05,263C.05,176.1.05,89.2,0,2.3,0,.42.42,0,2.3,0c123.47.05,246.94.05,370.41,0,1.87,0,2.3.42,2.3,2.3-.05,173.8-.05,347.6,0,521.41,0,1.87-.42,2.3-2.3,2.3-123.47-.05-246.94-.05-370.41,0-1.87,0-2.3-.42-2.3-2.3.05-86.9.05-173.8.05-260.7ZM159,358c2.49.98,3.79,3.27,5.62,4.99,2.53,2.38,5.38,4.42,8.09,6.61.51.41,1.19.77,1.09,1.55-.46,3.77-.61,7.64-2.62,11-1.88,3.13-1.7,9.61,1.01,12.1,2.37,2.18,2.47,4.46,1.74,7.19-.39,1.46-1.58,2.3-2.45,3.4-1.58,2.01-1.38,3.87.7,4.68,3.72,1.44,7.51,2.81,11.58,1.29.72-.27,1.69-.61,1.66.58-.11,4.29,2.44,7.69,3.66,11.53.43,1.33,1.1,2.27,2.69,2.86,3.8,1.42,5.28,6.5,3.3,10.09-.52.94-1.25,2.09.04,2.85,3.35,1.97,6.14,4.79,9.94,6.08,2,.68,3.33.4,4.41-1.34.2.2.4.4.6.61-.17,2.47,1.52,3.32,3.46,3.32,3.43.01,5.21,1.86,6.1,4.84.89,2.98,2.82,5,5.46,6.46,1.89,1.05,3.81,2.06,5.67,3.17,1.12.67,2.12.6,3.29.07,2.75-1.25,5.14-3.01,7.56-4.78,3.24-2.36,4.38-5.27,3.1-9.05-.58-1.72-.15-2.84,1.41-3.74,1.97-1.14,3.6-2.55,4.19-4.99.46-1.91,2.1-2.68,3.95-2.93,1.31-.18,2.63-.35,3.96-.45,1.74-.14,2.26-1.02,1.44-2.5-1.28-2.31-1.15-4.79-1.22-7.29-.04-1.5.53-2.33,1.94-2.75,2.57-.76,4.87-2.14,7.26-3.31,1.71-.83,2.87-1.98,2.81-4-.03-.95.3-1.52,1.26-1.84,3.38-1.12,6.39-3.21,9.96-3.83.86-.15,1.43-.73,1.5-1.48.21-2.31.15-4.68,2.96-5.61.18-.06.27-.59.27-.9,0-2.08,0-4.17-.06-6.25-.02-.67-.3-1.25-.96-1.64-4.56-2.7-5.74-7.81-2.9-12.44,1.34-2.18.63-5.09-1.57-6.12-1.36-.64-1.96-1.51-1.99-3.08-.07-3.61,2.1-6.39,3.44-9.43.84-1.91,1.37-3.45.48-5.38-.82-1.77-.52-3.17,1.14-4.55,2.95-2.45,5.3-5.51,7.68-8.5.9-1.13,1.6-2.44.91-3.91-2.48-5.34-3.8-11.2-7.1-16.18-.65-.98-1.01-2.07-.99-3.3.04-2.63.72-3.32,3.27-2.89,1.63.27,2.59-.24,3.46-1.68,2.29-3.84,3.01-7.5-.46-11.05-.23-.24-.42-.52-.63-.77-1.49-1.75-1.74-3.4.45-4.79,2.53-1.61,3.11-3.74,2.05-6.52-.4-1.06-.37-2.23.43-3.32,1.41-1.95,2.62-4.04,4.02-6,.71-.99.9-1.92.43-3.01-2.23-5.12-1.34-10.64-2.05-15.96-.21-1.54.34-2.47,1.79-3.13,2.88-1.32,4.93-3.58,5.55-6.66.35-1.75.9-2.33,2.64-2.47,7.36-.58,13.1-6.13,13.82-11.09.62-4.26,2.23-8.38,1.8-12.78-.1-1.03.24-1.97.87-2.8,1.7-2.23,1.86-4.72,1.3-7.35-.59-2.73-2.73-5.32-.71-8.29.1-.15-.09-.47-.12-.72-.28-2.13-.69-4.26-.82-6.4-.16-2.72-.44-5.52,2.74-7.1.96-.48,1.55-1.7,2.3-2.59.48-.58.98-1.41,1.74-1.28,2.25.41,3.24-1.09,4.47-2.48,1.43-1.62,3.07-3.06,4.56-4.63.81-.85,1.43-1.03,2.54-.3,1.94,1.26,4.03,1.68,6.39.76,1.55-.6,3.19-1.24,5.03-.26,2.87,1.53,5.96.58,7.79-2.18.57-.86.73-1.97-.75-1.89-4.56.26-6.12-2.57-6.83-6.35-.5-2.63-2.27-4.28-4.46-5.35-4.76-2.33-7.38-6.78-7.14-12.23.05-1.1,1.45-2.49-.19-3.36-1.08-.57-2.36-.77-3.57-1.07-.71-.17-1.25.36-1.85.63-1.74.78-3.49.68-5.36.49-2.92-.3-5-2.52-7.88-2.94-2.8-.42-5.65-.05-8.42-.77-1.65-.43-2.13.6-2.33,2.07-.61,4.45-1.49,8.81-3.36,12.97-1.03,2.28-2.17,4.22-4.89,4.31-3.12.1-6.51,1.03-8.19-3.19-1.18-2.98-3.65-5.63-3.77-8.83-.18-4.8-1.87-8.85-4.25-12.83-2.9-4.85-5.66-9.78-2.23-15.57,1.91-.83.14-1.37-.16-2.03,1.15-.12,1.7-.91,2.16-1.85,1.95-3.97,4.84-7.12,8.4-9.69,1.37-.98,2.51-2.19,3.4-3.62,1.27-2.04.33-6.46-1.49-6.72-1.98-.28-4.14-.41-5.9.52-2.87,1.52-6.01,1.81-9.04,2.64-5.64,1.56-8.86-1.94-11.57-5.78-2.26-3.22-.82-6.56,1.23-9.48,2.48-3.54,3.79-7.58,5.06-11.62.91-2.91-.99-5.65-3.93-6.34-1.68-.39-2.88.66-4.22,1.2-9.29,3.78-13.48,11.14-14.03,20.76-.24,4.22-1.22,7.79-4.26,10.97-4.8,5.01-12.23,7.09-17.29,4.29-2.31-1.27-3.93-3.33-5.5-5.36-2.07-2.68-4.39-4.53-8.02-3.47-1.15-.14-2.3-.85-3.46-.02-1.22-.25-2.34-.17-3.59.26-1.29.45-2.48,1.38-3.96,1.23-.39-.47-.71-.36-.98.12-.84.14-1.67.28-2.51.43-.54-.61-1.04-.57-1.5.1-1.99.3-3.99.57-6.02.36-1.81-.67-3.62-.63-5.43-.02-.5-.04-1-.08-1.5-.13-.21-.58-.47-.96-1.03-.29-.99.03-1.99.06-2.99.08-.22-.2-.43-.4-.65-.6-.06-.57-.04-1.17-.18-1.72-1.98-7.63-1.51-15.27.82-22.64,1.63-5.15,1.63-10.08.56-15.2-.22-1.04-.62-1.89-1.34-2.6-4.25-4.22-8.45-8.5-12.79-12.62-2.46-2.33-5.36-3.92-8.92-3.9-.77,0-1.47-.19-1.88.72-1.91,4.17-5.05,7.35-8.26,10.53-2.23,2.21-4.3,2.87-7.34,1.6-4.68-1.97-4.76-1.78-6.89,2.66-.11.23-.2.46-.31.68-1.58,3.04-1.78,5.98.43,8.87,2.04,2.67,2.69,5.93,3.18,9.11.33,2.12.39,4.53-2.17,5.87-.99.52-1.38,1.57-1,2.81.4,1.34.43,2.94-.85,3.62-3.03,1.61-2.58,3.76-1.6,6.33,1.38,3.59,2.14,7.2-.77,10.57-.47.55-.41,1.58-.55,2.39-.47,2.63-2.66,4.96-4.8,5.09-4.35.26-7.04,2.29-8.41,6.4-1,3-1.83,6.05-3.41,8.83-.8,1.41-1.2,3.11-.66,4.59,1.11,3.05-.41,4.63-2.68,6.15-3.46,2.31-6.91,4.65-10.16,7.23-2.07,1.64-3.91,2.31-6.3.78-.93-.6-2.03-1.05-3.24-.16-4.35,3.23-4.42,3.2-8.65-.28-.45-.37-.9-.74-1.38-1.07-2.53-1.75-8.04-1.77-9.26.22-1.44,2.36-3.21,2.51-5.52,1.79-2.53-.79-2.95-.42-2.97,2.13,0,.58.15,1.55-.11,1.68-2.52,1.31-3.68,4.19-6.12,5.41-1.57.79-3.53,1.03-5.33,1.1-2.21.09-2.41,1.21-2.51,3.05-.32,6.06-.63,12.14-3.23,17.81-.56,1.22-.62,2.56-.64,3.91-.04,2.83.52,5.74-.27,8.46-1.27,4.33-.77,8.37,1.05,12.37,1.63,3.58,2.4,7.38,1.37,11.18-.75,2.79-2.07,5.45-2.67,8.29-.5,2.38-1.58,4.08-3.86,5.12-1.5.69-3.17,1.69-3.5,3.36-.72,3.71-.46,7.56,2.45,10.22,3.14,2.87,4.81,6.15,5.23,10.3.16,1.6-.05,2.82-1.78,2.87-3.21.1-5.46,2-7.89,3.67-4.52,3.11-5.34,6-2.68,10.8,1.02,1.85.8,3.4-.03,5.18-1.18,2.51-3.42,2.34-5.55,2.39-1.8.04-2.36.5-2.12,2.54.42,3.55,1.31,7.31-1.44,10.51-.29.33-.31.93-.38,1.41-.6,4.64-.58,9.3-.4,13.96.06,1.49-.18,3.57.66,4.33,2.68,2.43,1.33,4.96.96,7.58-.21,1.47-1,2.11-2.27,2.12-4.64.06-7.31,3.17-9.97,6.29-.98,1.15-1.31,2.48-.65,3.95,2.03,4.56,5.59,8.11,8.11,12.38,2.28,3.85,5.95,6.71,10.61,7.77.62.14,1.25.52,1.74.95,4.49,4.02,9.71,6.99,14.66,10.35.11.69.53.91,1.18.79.27.1.54.2.81.29,2.93,1.55,5.97.77,8.99.41.52,0,1.05,0,1.57-.01.4.15.79.31,1.19.46-.71,1.98-2.1,3.33-3.91,4.33-1.53.85-3,1.78-4.47,2.74-.98.64-2.28,1.5-2.05,2.63.45,2.17-.31,3.65-1.67,5.12-.35.38-.54,1.08-.53,1.62.11,4.53.06,9.11,1.51,13.47.64,1.94,1.17,3.87.88,5.85-.38,2.58.6,3.81,3.06,4.64,4.19,1.42,8.53,7.28,8.54,10.95.01,5.2.95,6.3,6.13,7.21,2.94.52,4.64-.82,4.75-3.79.07-1.83.05-3.66.09-5.5,0-.4-.1-.9.39-1.09.61-.24.96.25,1.17.66,1.8,3.55,5.19,5.35,8.38,7.2,2.71,1.56,4.68,3.66,6.36,6.16,1.02,1.52,1.88,3.15,2.96,4.62,1.24,1.69,1.52,3.47.99,5.43-.95,3.5.3,6.54,1.97,9.49.48.85,1.27,1.54,2.26,1.17,3.26-1.23,5.24,1.09,7.57,2.53,1.88,1.16,2.51,2.57,1.17,4.55-.42.62-.7,1.33-1.07,1.98-1.24,2.14-2.42,4.25-.03,6.44.59.54.36,1.42.36,2.16.01,2.5.02,5,0,7.5,0,1.03-.05,2.12,1.1,2.54,1.11.41,1.85-.42,2.55-1.14,1.92-1.97,2.57-4.62,3.73-7,1.71-3.52,3.17-7.5,6.28-9.75,3.19-2.3,3.24-4.59,2.11-7.62-.33-.89-.54-1.88-.17-2.69,2.38-5.31,5.19-10.37,10.94-12.66,1.81-.72,2.64-1.67,3.04-3.41.36-1.55.92-3.05,2.59-3.73,3.09-1.26,3.26-1.64,2.03-4.67-.37-.92-.76-1.85-1.24-2.72-1.63-2.95-2.24-5.85-.19-8.91.96-1.43,1.05-2.92-.39-4.28-.77-.73-.69-1.63-.42-2.73,1.42-5.71,3.79-11.24,3.03-17.36-.31-2.51-.79-4.69-3.14-6.12-1.29-.79-2.55-1.95-2.26-3.62.91-5.25-.32-10.76,2.64-15.82,1.22-2.09,1.99-3.17,4.48-3.01,3.52.23,7.29-1.49,6.73-5.93l.89.03c-.06,1.13.54,1.61,1.6,1.65.17.57.37,1.06,1.01.37.5.05.99.09,1.49.14.18.6.41,1.04,1.02.33Z"/>
      <path class="cls-2" d="M53.01,367.19c-.27-.1-.54-.2-.82-.29-.23-.5-.58-.83-1.18-.79-4.95-3.36-10.17-6.33-14.66-10.35-.48-.43-1.11-.81-1.74-.95-4.67-1.07-8.34-3.93-10.61-7.77-2.53-4.27-6.08-7.82-8.11-12.38-.65-1.47-.33-2.8.65-3.95,2.66-3.12,5.34-6.23,9.97-6.29,1.27-.02,2.06-.66,2.27-2.12.37-2.62,1.72-5.15-.96-7.58-.84-.77-.6-2.85-.66-4.33-.18-4.66-.21-9.32.4-13.96.06-.48.09-1.08.38-1.41,2.75-3.2,1.86-6.96,1.44-10.51-.24-2.04.31-2.5,2.12-2.54,2.13-.05,4.37.12,5.55-2.39.84-1.78,1.06-3.34.03-5.18-2.67-4.8-1.84-7.7,2.68-10.8,2.43-1.67,4.68-3.58,7.89-3.67,1.73-.05,1.94-1.26,1.78-2.87-.42-4.15-2.09-7.43-5.23-10.3-2.91-2.66-3.18-6.51-2.45-10.22.33-1.67,2-2.68,3.5-3.36,2.28-1.04,3.36-2.74,3.86-5.12.59-2.85,1.91-5.51,2.67-8.29,1.03-3.81.26-7.6-1.37-11.18-1.82-4-2.31-8.04-1.05-12.37.8-2.72.23-5.63.27-8.46.02-1.35.07-2.68.64-3.91,2.6-5.66,2.91-11.75,3.23-17.81.1-1.84.3-2.96,2.51-3.05,1.8-.07,3.76-.31,5.33-1.1,2.44-1.22,3.6-4.1,6.12-5.41.26-.14.11-1.1.11-1.68.02-2.56.44-2.92,2.97-2.13,2.32.72,4.08.57,5.52-1.79,1.22-2,6.73-1.97,9.26-.22.48.33.93.7,1.38,1.07,4.22,3.48,4.3,3.51,8.65.28,1.21-.9,2.31-.44,3.24.16,2.39,1.52,4.23.86,6.3-.78,3.25-2.58,6.71-4.92,10.16-7.23,2.27-1.52,3.79-3.1,2.68-6.15-.54-1.48-.14-3.18.66-4.59,1.58-2.78,2.41-5.83,3.41-8.83,1.37-4.11,4.06-6.15,8.41-6.4,2.13-.13,4.33-2.46,4.8-5.09.15-.81.08-1.84.55-2.39,2.91-3.37,2.15-6.98.77-10.57-.98-2.57-1.43-4.72,1.6-6.33,1.28-.68,1.26-2.28.85-3.62-.37-1.24.01-2.29,1-2.81,2.56-1.34,2.5-3.75,2.17-5.87-.49-3.18-1.14-6.44-3.18-9.11-2.21-2.89-2.01-5.83-.43-8.87.11-.22.21-.45.31-.68,2.13-4.44,2.21-4.63,6.89-2.66,3.03,1.27,5.11.61,7.34-1.6,3.21-3.18,6.35-6.36,8.26-10.53.42-.91,1.11-.71,1.88-.72,3.57-.02,6.47,1.57,8.92,3.9,4.35,4.12,8.54,8.4,12.79,12.62.72.71,1.13,1.56,1.34,2.6,1.07,5.12,1.07,10.05-.56,15.2-2.33,7.37-2.8,15.01-.82,22.64.14.55.13,1.15.18,1.72-2.07,2.02-3.82,4.77-6.31,5.89-3.24,1.46-4.77,3.85-6.32,6.62-2.03,3.66-1.9,8.31,1.03,11.28,5.52,5.59,10.1,12.18,16.92,16.43,1.54.96,2.46,2.89,4.42,3.11,2.62.29,4.14,1.86,5.31,3.99,1.08,1.97,2.08,3.98,3.25,5.89,1.75,2.83.85,5.95.41,8.68-.36,2.22-2.4,4.36-4.13,6.09-1.31,1.31-1.59,2.52-1.51,4.18.13,3.01.86,6.15-1.58,8.76-.38.41-.38,1.25-.43,1.9-.34,5.37.07,10.75-.28,16.15-.28,4.33-2.23,6.93-5.32,9.2-3.14,2.3-6.81,3.48-10.53,4.38-2,.48-3.37,2.47-5.36,2.42-4.4-.1-8.79.41-13.2-.14-2.31-.29-4.67.46-6.79,1.64-3.13,1.73-6.2,3.4-8.09,6.75-1.04,1.83-2.61,3.54-4.76,4.24-1.62.53-2.5,1.61-2.98,3.09-1.09,3.34-3.24,5.7-6.36,7.25-.74.37-1.45.81-2.15,1.27-4.08,2.65-5.14,5.5-2.64,9.55,2.88,4.68,3.88,9.84,5,15.01.85,3.89-.38,5.02-4.36,5.15-4.99.15-10.16-1.43-14.89,1.84-1.26.87-2.26,1.47-1.99,2.91,1.01,5.55,2.15,11.09,4.09,16.4.63,1.73.92,2.95-.86,4.01-1.22.73-1.57,2.11-2.15,3.29-.4.82-.56,1.94-1.21,2.42-2.41,1.79-2.61,4.25-2.61,6.9,0,2.43-.77,4.13-3.59,4.77-7.19,1.64-11.11,10.74-9.95,17.66.3,1.8-2.37,4.75-3.62,3.87-2.39-1.7-2.62.15-2.79,1.56-.36,2.9-1.76,5.32-3.82,7.06-2.74,2.31-3.47,4.5-1.45,7.61.77,1.19.33,2.01-1.4,1.66-1.42-.29-2.96.04-4.01,1-4.31,3.98-9.95,6.01-14.31,9.89-.52,0-1.05,0-1.57.01-2.96-.99-5.99-.33-8.99-.41Z"/>
      <path class="cls-6" d="M283.63,130.04c-3.42,5.78-.67,10.72,2.23,15.57,2.38,3.98,4.07,8.03,4.25,12.83.12,3.21,2.58,5.86,3.77,8.83,1.68,4.22,5.07,3.28,8.19,3.19,2.71-.08,3.86-2.02,4.89-4.31,1.87-4.15,2.75-8.52,3.36-12.97.2-1.47.68-2.49,2.33-2.07,2.77.72,5.61.35,8.42.77,2.88.43,4.96,2.65,7.88,2.94,1.87.19,3.62.29,5.36-.49.6-.27,1.14-.8,1.85-.63,1.21.3,2.49.5,3.57,1.07,1.64.87.24,2.26.19,3.36-.24,5.45,2.38,9.9,7.14,12.23,2.19,1.07,3.97,2.72,4.46,5.35.71,3.78,2.27,6.61,6.83,6.35,1.48-.08,1.32,1.02.75,1.89-1.83,2.77-4.92,3.72-7.79,2.18-1.83-.98-3.48-.34-5.03.26-2.36.92-4.46.5-6.39-.76-1.11-.72-1.73-.55-2.54.3-1.49,1.57-3.13,3-4.56,4.63-1.22,1.39-2.21,2.9-4.47,2.48-.76-.14-1.26.7-1.74,1.28-.75.89-1.34,2.11-2.3,2.59-3.18,1.59-2.9,4.38-2.74,7.1.12,2.14.53,4.27.82,6.4.03.25.22.58.12.72-2.02,2.96.12,5.56.71,8.29.56,2.63.4,5.12-1.3,7.35-.63.82-.97,1.76-.87,2.8.43,4.41-1.18,8.53-1.8,12.78-.72,4.96-6.46,10.51-13.82,11.09-1.74.14-2.29.72-2.64,2.47-.62,3.08-2.66,5.34-5.55,6.66-1.44.66-1.99,1.59-1.79,3.13.71,5.32-.18,10.84,2.05,15.96.48,1.09.28,2.02-.43,3.01-1.4,1.95-2.61,4.05-4.02,6-.79,1.09-.83,2.26-.43,3.32,1.05,2.78.48,4.92-2.05,6.52-2.19,1.39-1.94,3.04-.45,4.79.22.25.4.54.63.77,3.47,3.55,2.76,7.21.46,11.05-.86,1.45-1.83,1.96-3.46,1.68-2.55-.43-3.23.26-3.27,2.89-.02,1.23.34,2.31.99,3.3,3.3,4.98,4.62,10.84,7.1,16.18.68,1.47-.01,2.79-.91,3.91-2.39,2.99-4.74,6.05-7.68,8.5-1.66,1.38-1.96,2.78-1.14,4.55.89,1.93.36,3.46-.48,5.38-1.33,3.03-3.5,5.82-3.44,9.43.03,1.57.63,2.44,1.99,3.08,2.2,1.03,2.9,3.94,1.57,6.12-2.84,4.63-1.66,9.74,2.9,12.44.66.39.94.97.96,1.64.06,2.08.06,4.16.06,6.25,0,.31-.1.84-.27.9-2.81.94-2.75,3.31-2.96,5.61-.07.74-.64,1.33-1.5,1.48-3.57.62-6.58,2.71-9.96,3.83-.97.32-1.29.89-1.26,1.84.06,2.02-1.1,3.16-2.81,4-2.39,1.17-4.68,2.55-7.26,3.31-1.41.42-1.98,1.25-1.94,2.75.07,2.5-.06,4.98,1.22,7.29.82,1.48.3,2.36-1.44,2.5-1.32.1-2.64.27-3.96.45-1.85.25-3.49,1.02-3.95,2.93-.58,2.44-2.22,3.85-4.19,4.99-1.56.9-1.99,2.03-1.41,3.74,1.28,3.78.14,6.68-3.1,9.05-2.43,1.77-4.81,3.53-7.56,4.78-1.17.53-2.17.6-3.29-.07-1.86-1.1-3.77-2.12-5.67-3.17-2.64-1.46-4.57-3.48-5.46-6.46-.89-2.98-2.67-4.83-6.1-4.84-1.94,0-3.62-.85-3.46-3.32.53-.52,1.05-1.06,1.6-1.56,1.81-1.65,2.79-3.36.61-5.47-.59-.57-.27-1.18.12-1.79,3.33-5.28,2.12-10.44-.51-15.52-.33-.63-.29-1.03.13-1.55,1.13-1.39,2.25-2.14,3.91-.61,1.13,1.03,2.33,2.27,4.16,1.7,2.68-.84,6.59-5.95,6.36-8.86-.24-2.99.47-4.95,3.58-5.77,1-.26,2.56-1.31,2.13-2.09-1.44-2.56.23-5.47-1.24-7.9-.07-.11-.31-.12-.45-.2-3.75-2.17-5.98-5.36-6.47-9.68-.13-1.12-.74-1.83-1.54-2.43-1.31-.99-2.79-1.38-4.45-1.28-.63.04-1.87.13-1.15-1.12,1.06-1.82.57-3.74.59-5.61.02-1.18.36-2.03,1.18-2.86,2.62-2.67,5.14-5.43,7.73-8.13,3.2-3.33,2.77-6.23-1.14-8.73-3.03-1.94-5.35-4.3-3.9-8.42.26-.72-.01-1.64-.09-2.46-.28-3.19-2.79-5-4.61-7.2-.93-1.13-1.29-2.21-1.22-3.62.06-1.22.5-1.37,1.56-1,2.55.88,4.92.05,7.14-1.08,3.03-1.55,6.02-3.19,8.95-4.93,1.79-1.06,2.8-1.09,3.15,1.32.2,1.37.76,3.19,2.58,2.68,2.49-.7,4.81-.61,7.24.04.91.24,1.79-.21,2.47-.9.53-.35.47-.84.27-1.32-1.1-2.63-1.65-5.41-2.03-8.2-.25-1.82-1.01-3.05-2.62-3.87-3.21-1.64-4.66-4.71-5.51-7.87-.73-2.71-2.18-3.82-4.75-4.25-2.65-.44-4.95-1.75-5.89-4.39-2.37-6.63-5.76-12.68-9.7-18.48-2.28-3.35-5.71-5.57-7.99-8.88-2.05-2.98-3.89-6.13-7.71-7.4-1.59-.53-2.93-1.95-2.5-3.87.4-1.81,2.14-1.43,3.53-1.55,2.17-.18,2.71-1.05,1.99-3.16-.49-1.44.39-2.08,1.39-2.82,2.34-1.73,5.28-2.38,7.43-4.5,1.06-1.04,1.73-1.73,1.2-3.33-.64-1.91.17-3.48,1.7-4.82,1.24-1.09,2.96-.89,4.21-2.02,2.08-1.86,3.14-1.55,4.33.97.49,1.04.8,2.18,1.15,3.28.54,1.74.78,3.57,1.64,5.22.95,1.83,2.73,2.03,4.46,2.21,1.61.18,1.48-1.3,1.82-2.22.53-1.46,1.65-2.09,3.03-2.22,1.93-.17,3.84.07,5.5,1.21.99.68,2.07,1.2,3.24,1.14,2.09-.11,3.93.41,5.67,1.51,1.8,1.14,2.99.56,3.57-1.39,1.04-3.52,1.66-7.1,1.58-10.78-.02-1.05-.65-1.63-1.46-2.15-1.36-.86-2.58-1.94-2.84-3.62-.37-2.43-1.73-4.42-3.26-6.07-2.01-2.16-3.15-4.68-4.17-7.29-.91-2.35-1.97-4.58-3.54-6.55-1.28-1.6-1.45-2.93-.2-4.87,1.72-2.67,3.74-5.66,2.77-9.02-.79-2.73-.74-5.4-.83-8.13-.19-6.08,2.15-10.72,7.47-13.9,6.75-4.03,11.02-10.08,13.65-17.39.43-1.2.1-3.34,2.6-2.44.13.05.56-.38.67-.65,1.43-3.45,3.94-6.59,4.37-10.27.7-6.01,4.97-9.77,7.94-14.36.64-.99,1.75-1.64,2.95-.48Z"/>
      <path class="cls-3" d="M152.99,355.48c.56,4.44-3.21,6.16-6.73,5.93-2.5-.16-3.26.92-4.48,3.01-2.96,5.07-1.74,10.57-2.64,15.82-.29,1.67.97,2.83,2.26,3.62,2.35,1.43,2.83,3.61,3.14,6.12.76,6.12-1.61,11.66-3.03,17.36-.28,1.11-.36,2,.42,2.73,1.44,1.36,1.35,2.85.39,4.28-2.05,3.06-1.44,5.97.19,8.91.48.87.87,1.79,1.24,2.72,1.23,3.03,1.06,3.4-2.03,4.67-1.67.68-2.23,2.18-2.59,3.73-.41,1.74-1.23,2.69-3.04,3.41-5.75,2.28-8.56,7.35-10.94,12.66-.36.81-.16,1.79.17,2.69,1.13,3.04,1.07,5.32-2.11,7.62-3.12,2.25-4.58,6.23-6.28,9.75-1.15,2.38-1.8,5.03-3.73,7-.71.72-1.44,1.55-2.55,1.14-1.15-.42-1.11-1.52-1.1-2.54.02-2.5.01-5,0-7.5,0-.74.23-1.61-.36-2.16-2.39-2.19-1.21-4.3.03-6.44.38-.65.65-1.36,1.07-1.98,1.34-1.98.71-3.39-1.17-4.55-2.33-1.44-4.31-3.76-7.57-2.53-.99.37-1.78-.32-2.26-1.17-1.66-2.95-2.92-5.99-1.97-9.49.53-1.96.25-3.74-.99-5.43-1.08-1.47-1.94-3.1-2.96-4.62-1.68-2.5-3.65-4.59-6.36-6.16-3.19-1.84-6.57-3.64-8.38-7.2-.21-.41-.56-.9-1.17-.66-.48.19-.38.69-.39,1.09-.04,1.83-.02,3.67-.09,5.5-.11,2.97-1.82,4.31-4.75,3.79-5.18-.92-6.12-2.01-6.13-7.21-.01-3.68-4.35-9.53-8.54-10.95-2.46-.84-3.44-2.06-3.06-4.64.29-1.99-.23-3.92-.88-5.85-1.45-4.36-1.4-8.93-1.51-13.47-.01-.54.17-1.24.53-1.62,1.36-1.47,2.12-2.96,1.67-5.12-.24-1.13,1.06-1.99,2.05-2.63,1.46-.95,2.94-1.89,4.47-2.74,1.81-1.01,3.2-2.35,3.91-4.34,1.44-.01,2.09-1.27,3.06-1.99,3.45-2.58,7.68-3.96,10.81-7.08,1-1,2.49-1.25,3.99-.74,1.96.66,2.41-.63,2.34-2.11-.04-.87-.48-1.75-.86-2.57-.81-1.73-.49-2.96.91-4.4,2-2.05,4.08-4.17,4.62-7.24.12-.66.36-1.2,1.47-1.24,3.43-.15,5.41-3.04,5.04-6.36-.62-5.46,1.8-13.94,9.92-15.84,2.16-.51,3.28-1.7,3.62-4.1.33-2.3-.31-4.97,1.64-6.87,1.17-1.14,1.98-2.42,2.47-3.97.33-1.04.91-1.91,1.9-2.53.79-.49,1.05-1.37,1.42-2.24.75-1.75-.57-2.77-.98-4.13-1.26-4.21-1.75-8.6-3.03-12.82-.32-1.05-1.19-3.32,1.66-3.18.18,0,.45-.48.56-.77.58-1.66,1.87-1.89,3.4-1.86,3.91.06,7.83.06,11.75.03,1.91-.01,4.08-1.85,3.89-3.24-.27-2.05-.36-4.15-.92-6.12-1.22-4.26-1.66-8.77-4.71-12.43-1.47-1.76-1.83-3.96.2-6.07,1.11-1.16,2.26-2.14,3.61-2.96,1.84-1.13,3.96-2,5.16-3.84,1.89-2.88,3.28-5.82,6.4-8.07,3.99-2.88,6.62-7.55,11-10.23,3.02-.35,5.96-1.66,9.09-.89,1.58.39,3.09.14,4.68.01,6.57-.51,8.87.06,10.67,7,.47,1.83,1.2,3.51,2.44,4.85,3.14,3.38,4.37,7.63,5.33,11.88.59,2.58.75,5.42-.67,8.04-.82,1.51-.67,3.13-.13,4.83,1.2,3.77.6,7.24-2.47,9.99-2.04,1.83-4.11,3.63-6.24,5.35-2.59,2.1-5.04,4.22-6.56,7.36-1.1,2.28-1.28,4.74-3.31,7-2.81,3.12-3.82,7.75-.09,11.67,1.15,1.2,1.08,2.2-.06,3.6-2.08,2.55-2.61,6.1-5.66,8.16-1.14.77-.96,2.8.18,4.06,1.11,1.23,1.29,2.63,1.25,4.17-.07,2.48-1.61,4.3-2.66,6.36-.73,1.43-1.46,1.98-3.26,1.63-3.61-.68-7.54,3.05-7.56,6.76,0,1.05.51,2.42-.43,3.1-2.6,1.87-1.61,3.95-.76,6.17,1.44,3.74,3.41,7.3,4.12,11.3Z"/>
      <path class="cls-4" d="M196.47,106.94c2.03.21,4.02-.06,6.02-.36.53.5,1.04.54,1.5-.1.84-.14,1.67-.28,2.51-.43.38.44.71.4.98-.12,1.48.15,2.67-.78,3.96-1.23,1.25-.43,2.37-.51,3.59-.26,1.15.8,2.3.8,3.46.02,3.63-1.06,5.95.78,8.02,3.47,1.57,2.03,3.19,4.09,5.5,5.36,5.07,2.8,12.49.72,17.29-4.29,3.04-3.17,4.02-6.75,4.26-10.97.55-9.62,4.74-16.98,14.03-20.76,1.34-.55,2.54-1.59,4.22-1.2,2.94.69,4.84,3.43,3.93,6.34-1.26,4.04-2.57,8.08-5.06,11.62-2.05,2.92-3.49,6.26-1.23,9.48,2.7,3.85,5.92,7.34,11.57,5.78,3.02-.83,6.17-1.12,9.04-2.64,1.76-.93,3.92-.8,5.9-.52,1.82.25,2.76,4.68,1.49,6.72-.89,1.43-2.03,2.63-3.4,3.62-3.57,2.57-6.46,5.72-8.4,9.69-.46.94-1.01,1.73-2.16,1.85-2.15-.22-3.64.68-4.7,2.55-.69,1.22-1.67,2.28-2.42,3.47-1.67,2.66-4.46,4.92-4.65,8.12-.24,3.95-2.36,7.04-3.57,10.53-.21.61-.49,1.4-1.35,1.17-1.98-.54-2.35.99-2.65,2.19-1.96,7.85-6.28,13.98-13.18,18.19-9.37,5.71-9.35,13.23-7.94,21.72.71,4.29-.6,7.41-2.48,10.44-1.17,1.88-1.12,3.11-.23,4.69,1.14,2.03,2.62,3.85,3.5,6.03,1.34,3.3,2.81,6.51,5.22,9.24,1.07,1.21,1.95,2.78,2.36,4.33.64,2.41,1.95,4.19,3.86,5.63.54.4,1.25.7,1.11,1.49-.52,2.93-.44,5.96-1.46,8.81-.45,1.26-1.12,1.61-2.47,1.16-4.32-1.46-8.72-2.68-13.19-3.58-2.34-.47-4.74.52-5.56,2.76-.79,2.16-1.97,1.32-3.09.78-1.03-.5-1.35-1.61-1.62-2.69-.62-2.5-1.12-5.04-2.4-7.32-1.25-2.23-3.14-2.83-4.93-1.46-1.14.87-2.26,1.55-3.69,1.92-1.89.49-4.06,3.63-3.87,5.54.24,2.36-.51,4.02-2.6,5.1-.81.42-1.61.87-2.37,1.37-1.65,1.09-4.55,1.69-4.65,3.42-.18,3.3-2.14,3.75-4.43,4.73-1.31.56-1.61.23-1.98-.7-1.33-3.31-4.03-5-7.25-5.87-1.54-.42-1.88-1.11-1.91-2.58-.1-4.65-1.61-8.92-3.79-12.98-1.62-3.02-4.25-5.49-4.71-9.17-.14-1.15-.95-2.27-1.79-3.24-2.11-2.43-1.95-2.98,1.24-3.79,3.72-.95,7.3-2.26,10.56-4.28,3.4-2.11,6.31-4.8,6.45-9.11.05-1.55-.04-3.15.22-4.66.39-2.25.31-4.41.07-6.66-.27-2.53-1.07-5.48.38-7.59,2.29-3.32,2.19-6.63,1.56-10.21-.1-.59-.17-1.29.38-1.61,2.22-1.32,2.97-3.75,4.35-5.68,2.58-3.59,2-7.63.68-11.43-.8-2.31-2.42-4.34-3.65-6.51-1.06-1.86-2.5-3.47-4.49-4.13-4.81-1.59-8.42-5.04-11.9-8.26-3.18-2.94-5.84-6.56-9.02-9.61-2.41-2.31-3.71-5.1-2.89-8.28.87-3.39,2.05-6.7,5.74-8.45,3.1-1.47,5.36-4.08,7.23-6.96.99-.03,1.99-.06,2.98-.08.25.41.61.48,1.03.29.5.04,1,.08,1.5.13,1.81.93,3.62.85,5.43.02Z"/>
      <path class="cls-5" d="M209.48,443.46c-1.08,1.74-2.41,2.02-4.41,1.34-3.81-1.29-6.6-4.11-9.94-6.08-1.29-.76-.56-1.91-.04-2.85,1.98-3.6.5-8.67-3.3-10.09-1.59-.59-2.27-1.53-2.69-2.86-1.22-3.84-3.77-7.24-3.66-11.53.03-1.19-.94-.85-1.66-.58-4.08,1.52-7.86.15-11.58-1.29-2.08-.8-2.28-2.66-.7-4.68.86-1.1,2.06-1.94,2.45-3.4.72-2.72.63-5.01-1.74-7.19-2.71-2.49-2.89-8.97-1.01-12.1,2.02-3.36,2.16-7.24,2.62-11,.09-.77-.58-1.13-1.09-1.55-2.71-2.19-5.56-4.23-8.09-6.61-1.83-1.72-3.13-4.01-5.62-4.99-.25-.4-.6-.47-1.02-.33-.5-.05-.99-.09-1.49-.14-.23-.42-.58-.5-1.01-.37-1.06-.04-1.66-.52-1.6-1.65.24-1.17.17-2.3-.3-3.42-1.2-2.83-2.35-5.68-3.56-8.5-.51-1.18-1.17-2.8-.16-3.48,1.88-1.26,1.55-2.9,1.69-4.6.36-4.23,2.91-6.27,6.97-5.67.82.12,1.75.3,2.26-.58,1.38-2.35,3.15-4.47,3.82-7.22.53-2.2.75-4.4-.68-6.2-1.57-1.97-1.01-3.41.69-4.62,1.53-1.08,2.43-2.45,2.79-4.23.19-.93.57-1.82,1.29-2.37,2.23-1.7,1.64-3.27.26-5.25-3.24-4.67-2.68-7.65,1.82-11.08.62-.47.74-1.08.72-1.75-.06-1.91.77-3.54,1.54-5.2,1.89-4.06,5.74-6.14,8.95-8.83,5.32-4.46,7.29-6.75,5.39-15.12-.39-1.73.21-3.24,1.26-4.34.87-.91,2.18.02,3.2.39.83.3,1.57.92,2.3,1.45,2.41,1.75,3.3,4.53,4.61,7.01.9,1.72,1.81,3.47,3.8,4.07,2.41.73,3.87,2.47,5.19,4.41,1.26,1.86,2.46,3.76,4.16,5.28,6.96,6.22,10.9,14.41,14.4,22.76,1.62,3.85,4.14,5.84,8,6.56,1.75.33,2.78,1.32,3.16,3.04.79,3.52,2.51,6.43,5.55,8.5,1.09.74,2.18,1.46,2.47,2.96.59,3.01,1.29,5.99,1.95,8.98-2.75,0-5.47-1.53-8.26-.02-.67.37-1.24-.32-1.47-1-.26-.79-.54-1.59-.62-2.41-.2-2.04-1.08-2.36-2.82-1.41-3.64,2.01-7.3,3.98-11.01,5.86-2.14,1.08-4.31,2.14-6.84.8-1.5-.79-2.1.01-2.44,1.64-.75,3.67,1.79,5.66,3.75,7.91,1.45,1.66,2.74,3.58,2.16,5.6-1.48,5.21,1.13,8.13,5.05,10.66,2.63,1.7,2.87,3.7.71,5.97-2.58,2.72-5.23,5.37-7.91,7.99-1.36,1.33-1.99,2.72-1.44,4.69.43,1.53.37,3.15-.79,4.49-.53.61-1.3,1.17-.75,2.15.52.92,1.39,1.1,2.36,1.08.83-.02,1.69-.11,2.49.05,1.43.28,2.85.82,2.89,2.58.1,4.06,2.72,6.85,5.35,9.19,1.75,1.55,2.4,2.87,2.2,4.95-.06.58-.17,1.23.03,1.74.74,1.85-.3,2.69-1.78,3.08-2.4.63-3.21,2.13-2.85,4.45.51,3.29-1.98,5.31-3.52,7.59-1.34,1.99-3.48,1.75-5.43.16-1.52-1.24-3.2-1.27-4.71.19-1.06,1.03-2.75,2.26-1.32,3.7,1.7,1.71,1.55,3.73,1.86,5.68.54,3.34,1.26,6.77-1.83,9.47-.91.8-.42,1.93.25,2.43,1.93,1.46,1.06,2.61-.12,3.87-.51.54-1.11,1.03-1.16,1.86Z"/>
    </g>
  </g>
</svg>